<?xml version="1.0" encoding="UTF-8" standalone="no"?>
<!DOCTYPE svg PUBLIC "-//W3C//DTD SVG 1.1//EN"
 "http://www.w3.org/Graphics/SVG/1.1/DTD/svg11.dtd">
<!-- Generated by graphviz version 2.38.0 (20140413.2041)
 -->
<!-- Title: G Pages: 1 -->
<svg width="376pt" height="950pt"
 viewBox="0.00 0.00 375.75 950.00" xmlns="http://www.w3.org/2000/svg" xmlns:xlink="http://www.w3.org/1999/xlink">
<g id="graph0" class="graph" transform="scale(1 1) rotate(0) translate(4 946)">
<title>G</title>
<polygon fill="white" stroke="none" points="-4,4 -4,-946 371.746,-946 371.746,4 -4,4"/>
<g id="clust1" class="cluster"><title>cluster_Global</title>
<path fill="none" stroke="gray" d="M20,-44C20,-44 347.746,-44 347.746,-44 353.746,-44 359.746,-50 359.746,-56 359.746,-56 359.746,-922 359.746,-922 359.746,-928 353.746,-934 347.746,-934 347.746,-934 20,-934 20,-934 14,-934 8,-928 8,-922 8,-922 8,-56 8,-56 8,-50 14,-44 20,-44"/>
<text text-anchor="middle" x="183.873" y="-921.2" font-family="Times,serif" font-size="11.00" fill="gray">Global</text>
</g>
<g id="clust2" class="cluster"><title>cluster_\EChat</title>
<path fill="none" stroke="gray" d="M28,-52C28,-52 339.746,-52 339.746,-52 345.746,-52 351.746,-58 351.746,-64 351.746,-64 351.746,-894 351.746,-894 351.746,-900 345.746,-906 339.746,-906 339.746,-906 28,-906 28,-906 22,-906 16,-900 16,-894 16,-894 16,-64 16,-64 16,-58 22,-52 28,-52"/>
<text text-anchor="middle" x="183.873" y="-893.2" font-family="Times,serif" font-size="11.00" fill="gray">EChat</text>
</g>
<g id="clust3" class="cluster"><title>cluster_\EChat\Actions</title>
<path fill="none" stroke="gray" d="M44,-644C44,-644 313.246,-644 313.246,-644 319.246,-644 325.246,-650 325.246,-656 325.246,-656 325.246,-866 325.246,-866 325.246,-872 319.246,-878 313.246,-878 313.246,-878 44,-878 44,-878 38,-878 32,-872 32,-866 32,-866 32,-656 32,-656 32,-650 38,-644 44,-644"/>
<text text-anchor="middle" x="178.623" y="-865.2" font-family="Times,serif" font-size="11.00" fill="gray">Actions</text>
</g>
<g id="clust4" class="cluster"><title>cluster_\EChat\Helpers</title>
<path fill="none" stroke="gray" d="M36,-428C36,-428 331.746,-428 331.746,-428 337.746,-428 343.746,-434 343.746,-440 343.746,-440 343.746,-624 343.746,-624 343.746,-630 337.746,-636 331.746,-636 331.746,-636 36,-636 36,-636 30,-636 24,-630 24,-624 24,-624 24,-440 24,-440 24,-434 30,-428 36,-428"/>
<text text-anchor="middle" x="183.873" y="-623.2" font-family="Times,serif" font-size="11.00" fill="gray">Helpers</text>
</g>
<g id="clust5" class="cluster"><title>cluster_\EChat\Helpers\URL</title>
<path fill="none" stroke="gray" d="M44,-482C44,-482 323.746,-482 323.746,-482 329.746,-482 335.746,-488 335.746,-494 335.746,-494 335.746,-596 335.746,-596 335.746,-602 329.746,-608 323.746,-608 323.746,-608 44,-608 44,-608 38,-608 32,-602 32,-596 32,-596 32,-494 32,-494 32,-488 38,-482 44,-482"/>
<text text-anchor="middle" x="183.873" y="-595.2" font-family="Times,serif" font-size="11.00" fill="gray">URL</text>
</g>
<g id="clust6" class="cluster"><title>cluster_\EChat\Exceptions</title>
<path fill="none" stroke="gray" d="M210.246,-106C210.246,-106 320.246,-106 320.246,-106 326.246,-106 332.246,-112 332.246,-118 332.246,-118 332.246,-220 332.246,-220 332.246,-226 326.246,-232 320.246,-232 320.246,-232 210.246,-232 210.246,-232 204.246,-232 198.246,-226 198.246,-220 198.246,-220 198.246,-118 198.246,-118 198.246,-112 204.246,-106 210.246,-106"/>
<text text-anchor="middle" x="265.246" y="-219.2" font-family="Times,serif" font-size="11.00" fill="gray">Exceptions</text>
</g>
<g id="clust7" class="cluster"><title>cluster_\EChat\Router</title>
<path fill="none" stroke="gray" d="M44,-240C44,-240 310.246,-240 310.246,-240 316.246,-240 322.246,-246 322.246,-252 322.246,-252 322.246,-408 322.246,-408 322.246,-414 316.246,-420 310.246,-420 310.246,-420 44,-420 44,-420 38,-420 32,-414 32,-408 32,-408 32,-252 32,-252 32,-246 38,-240 44,-240"/>
<text text-anchor="middle" x="177.123" y="-407.2" font-family="Times,serif" font-size="11.00" fill="gray">Router</text>
</g>
<!-- \\EChat\\Actions\\MessageAction -->
<g id="node1" class="node"><title>\\EChat\\Actions\\MessageAction</title>
<polygon fill="none" stroke="black" points="317.246,-850 213.246,-850 213.246,-814 317.246,-814 317.246,-850"/>
<text text-anchor="middle" x="265.246" y="-829.2" font-family="Courier,monospace" font-size="11.00">MessageAction</text>
</g>
<!-- \\EChat\\Actions\\Action -->
<g id="node5" class="node"><title>\\EChat\\Actions\\Action</title>
<polygon fill="none" stroke="black" points="124,-769 40,-769 40,-733 124,-733 124,-769"/>
<text text-anchor="start" x="48" y="-754.2" font-family="Courier,monospace" font-size="11.00">«abstract»</text>
<text text-anchor="start" x="61.5" y="-742.2" font-family="Courier,monospace" font-size="11.00">Action</text>
</g>
<!-- \\EChat\\Actions\\MessageAction&#45;&gt;\\EChat\\Actions\\Action -->
<g id="edge1" class="edge"><title>\\EChat\\Actions\\MessageAction&#45;&gt;\\EChat\\Actions\\Action</title>
<path fill="none" stroke="black" d="M219.031,-813.852C212.047,-810.949 204.935,-807.933 198.246,-805 175.521,-795.035 150.557,-783.422 129.69,-773.523"/>
<polygon fill="none" stroke="black" points="130.948,-770.246 120.414,-769.108 127.939,-776.566 130.948,-770.246"/>
</g>
<!-- \\EChat\\Actions\\IndexAction -->
<g id="node2" class="node"><title>\\EChat\\Actions\\IndexAction</title>
<polygon fill="none" stroke="black" points="310.746,-796 219.746,-796 219.746,-760 310.746,-760 310.746,-796"/>
<text text-anchor="middle" x="265.246" y="-775.2" font-family="Courier,monospace" font-size="11.00">IndexAction</text>
</g>
<!-- \\EChat\\Actions\\IndexAction&#45;&gt;\\EChat\\Actions\\Action -->
<g id="edge2" class="edge"><title>\\EChat\\Actions\\IndexAction&#45;&gt;\\EChat\\Actions\\Action</title>
<path fill="none" stroke="black" d="M219.443,-771.326C193.602,-767.476 161.016,-762.622 134.17,-758.623"/>
<polygon fill="none" stroke="black" points="134.594,-755.147 124.188,-757.136 133.563,-762.071 134.594,-755.147"/>
</g>
<!-- \\EChat\\Actions\\UserAction -->
<g id="node3" class="node"><title>\\EChat\\Actions\\UserAction</title>
<polygon fill="none" stroke="black" points="307.246,-742 223.246,-742 223.246,-706 307.246,-706 307.246,-742"/>
<text text-anchor="middle" x="265.246" y="-721.2" font-family="Courier,monospace" font-size="11.00">UserAction</text>
</g>
<!-- \\EChat\\Actions\\UserAction&#45;&gt;\\EChat\\Actions\\Action -->
<g id="edge5" class="edge"><title>\\EChat\\Actions\\UserAction&#45;&gt;\\EChat\\Actions\\Action</title>
<path fill="none" stroke="black" d="M223.118,-730.127C196.794,-734.048 162.431,-739.167 134.324,-743.354"/>
<polygon fill="none" stroke="black" points="133.653,-739.916 124.278,-744.851 134.685,-746.839 133.653,-739.916"/>
</g>
<!-- \\EChat\\Actions\\LoginAction -->
<g id="node4" class="node"><title>\\EChat\\Actions\\LoginAction</title>
<polygon fill="none" stroke="black" points="310.746,-688 219.746,-688 219.746,-652 310.746,-652 310.746,-688"/>
<text text-anchor="middle" x="265.246" y="-667.2" font-family="Courier,monospace" font-size="11.00">LoginAction</text>
</g>
<!-- \\EChat\\Actions\\LoginAction&#45;&gt;\\EChat\\Actions\\Action -->
<g id="edge7" class="edge"><title>\\EChat\\Actions\\LoginAction&#45;&gt;\\EChat\\Actions\\Action</title>
<path fill="none" stroke="black" d="M219.74,-687.853C212.529,-690.847 205.162,-693.967 198.246,-697 175.521,-706.965 150.557,-718.578 129.69,-728.477"/>
<polygon fill="none" stroke="black" points="127.939,-725.434 120.414,-732.892 130.948,-731.754 127.939,-725.434"/>
</g>
<!-- \\EChat\\Helpers\\URL\\GETURLBuilder -->
<g id="node6" class="node"><title>\\EChat\\Helpers\\URL\\GETURLBuilder</title>
<polygon fill="none" stroke="black" points="317.246,-580 213.246,-580 213.246,-544 317.246,-544 317.246,-580"/>
<text text-anchor="middle" x="265.246" y="-559.2" font-family="Courier,monospace" font-size="11.00">GETURLBuilder</text>
</g>
<!-- \\EChat\\Helpers\\URL\\URLBuilder -->
<g id="node7" class="node"><title>\\EChat\\Helpers\\URL\\URLBuilder</title>
<polygon fill="none" stroke="black" points="124,-553 40,-553 40,-517 124,-517 124,-553"/>
<text text-anchor="start" x="48" y="-538.2" font-family="Courier,monospace" font-size="11.00">«abstract»</text>
<text text-anchor="start" x="48" y="-526.2" font-family="Courier,monospace" font-size="11.00">URLBuilder</text>
</g>
<!-- \\EChat\\Helpers\\URL\\GETURLBuilder&#45;&gt;\\EChat\\Helpers\\URL\\URLBuilder -->
<g id="edge6" class="edge"><title>\\EChat\\Helpers\\URL\\GETURLBuilder&#45;&gt;\\EChat\\Helpers\\URL\\URLBuilder</title>
<path fill="none" stroke="black" d="M212.793,-554.335C188.251,-550.679 158.963,-546.316 134.425,-542.661"/>
<polygon fill="none" stroke="black" points="134.633,-539.153 124.227,-541.141 133.602,-546.077 134.633,-539.153"/>
</g>
<!-- \\EChat\\Helpers\\URL\\FriendURLBuilder -->
<g id="node8" class="node"><title>\\EChat\\Helpers\\URL\\FriendURLBuilder</title>
<polygon fill="none" stroke="black" points="327.746,-526 202.746,-526 202.746,-490 327.746,-490 327.746,-526"/>
<text text-anchor="middle" x="265.246" y="-505.2" font-family="Courier,monospace" font-size="11.00">FriendURLBuilder</text>
</g>
<!-- \\EChat\\Helpers\\URL\\FriendURLBuilder&#45;&gt;\\EChat\\Helpers\\URL\\URLBuilder -->
<g id="edge11" class="edge"><title>\\EChat\\Helpers\\URL\\FriendURLBuilder&#45;&gt;\\EChat\\Helpers\\URL\\URLBuilder</title>
<path fill="none" stroke="black" d="M202.631,-517.179C180.407,-520.489 155.58,-524.188 134.329,-527.354"/>
<polygon fill="none" stroke="black" points="133.586,-523.926 124.211,-528.861 134.617,-530.849 133.586,-523.926"/>
</g>
<!-- \\EChat\\Helpers\\SessionHandler -->
<g id="node9" class="node"><title>\\EChat\\Helpers\\SessionHandler</title>
<polygon fill="none" stroke="black" points="320.746,-472 209.746,-472 209.746,-436 320.746,-436 320.746,-472"/>
<text text-anchor="middle" x="265.246" y="-451.2" font-family="Courier,monospace" font-size="11.00">SessionHandler</text>
</g>
<!-- \\EChat\\Exceptions\\RouterException -->
<g id="node10" class="node"><title>\\EChat\\Exceptions\\RouterException</title>
<polygon fill="none" stroke="black" points="324.246,-204 206.246,-204 206.246,-168 324.246,-168 324.246,-204"/>
<text text-anchor="middle" x="265.246" y="-183.2" font-family="Courier,monospace" font-size="11.00">RouterException</text>
</g>
<!-- \\Exception -->
<g id="node18" class="node"><title>\\Exception</title>
<ellipse fill="none" stroke="black" cx="82" cy="-18" rx="48.9926" ry="18"/>
<text text-anchor="middle" x="82" y="-14.3" font-family="Times,serif" font-size="14.00" fill="gray">\Exception</text>
</g>
<!-- \\EChat\\Exceptions\\RouterException&#45;&gt;\\Exception -->
<g id="edge3" class="edge"><title>\\EChat\\Exceptions\\RouterException&#45;&gt;\\Exception</title>
<path fill="none" stroke="black" d="M212.774,-167.962C207.668,-165.296 202.724,-162.313 198.246,-159 154.987,-126.997 118.309,-75.2241 98.5816,-44.1145"/>
<polygon fill="none" stroke="black" points="101.502,-42.1834 93.2452,-35.5448 95.5601,-45.8836 101.502,-42.1834"/>
</g>
<!-- \\EChat\\Exceptions\\RouteException -->
<g id="node11" class="node"><title>\\EChat\\Exceptions\\RouteException</title>
<polygon fill="none" stroke="black" points="320.746,-150 209.746,-150 209.746,-114 320.746,-114 320.746,-150"/>
<text text-anchor="middle" x="265.246" y="-129.2" font-family="Courier,monospace" font-size="11.00">RouteException</text>
</g>
<!-- \\EChat\\Exceptions\\RouteException&#45;&gt;\\Exception -->
<g id="edge10" class="edge"><title>\\EChat\\Exceptions\\RouteException&#45;&gt;\\Exception</title>
<path fill="none" stroke="black" d="M209.57,-115.484C205.668,-113.788 201.854,-111.961 198.246,-110 163.836,-91.3034 129.401,-62.1033 107.256,-41.627"/>
<polygon fill="none" stroke="black" points="109.644,-39.0682 99.9564,-34.7796 104.856,-44.1737 109.644,-39.0682"/>
</g>
<!-- \\EChat\\Router\\FriendRouter -->
<g id="node12" class="node"><title>\\EChat\\Router\\FriendRouter</title>
<polygon fill="none" stroke="black" points="314.246,-392 216.246,-392 216.246,-356 314.246,-356 314.246,-392"/>
<text text-anchor="middle" x="265.246" y="-371.2" font-family="Courier,monospace" font-size="11.00">FriendRouter</text>
</g>
<!-- \\EChat\\Router\\Router -->
<g id="node13" class="node"><title>\\EChat\\Router\\Router</title>
<polygon fill="none" stroke="black" points="124,-365 40,-365 40,-329 124,-329 124,-365"/>
<text text-anchor="start" x="48" y="-350.2" font-family="Courier,monospace" font-size="11.00">«abstract»</text>
<text text-anchor="start" x="61.5" y="-338.2" font-family="Courier,monospace" font-size="11.00">Router</text>
</g>
<!-- \\EChat\\Router\\FriendRouter&#45;&gt;\\EChat\\Router\\Router -->
<g id="edge4" class="edge"><title>\\EChat\\Router\\FriendRouter&#45;&gt;\\EChat\\Router\\Router</title>
<path fill="none" stroke="black" d="M216.151,-366.835C190.876,-363.07 159.893,-358.455 134.175,-354.624"/>
<polygon fill="none" stroke="black" points="134.645,-351.155 124.238,-353.143 133.613,-358.079 134.645,-351.155"/>
</g>
<!-- \\EChat\\Router\\GETRouter -->
<g id="node14" class="node"><title>\\EChat\\Router\\GETRouter</title>
<polygon fill="none" stroke="black" points="303.746,-338 226.746,-338 226.746,-302 303.746,-302 303.746,-338"/>
<text text-anchor="middle" x="265.246" y="-317.2" font-family="Courier,monospace" font-size="11.00">GETRouter</text>
</g>
<!-- \\EChat\\Router\\GETRouter&#45;&gt;\\EChat\\Router\\Router -->
<g id="edge8" class="edge"><title>\\EChat\\Router\\GETRouter&#45;&gt;\\EChat\\Router\\Router</title>
<path fill="none" stroke="black" d="M226.691,-325.594C199.979,-329.574 163.768,-334.968 134.381,-339.346"/>
<polygon fill="none" stroke="black" points="133.673,-335.913 124.298,-340.848 134.704,-342.836 133.673,-335.913"/>
</g>
<!-- \\EChat\\Router\\Route -->
<g id="node15" class="node"><title>\\EChat\\Router\\Route</title>
<polygon fill="none" stroke="black" points="292.246,-284 238.246,-284 238.246,-248 292.246,-248 292.246,-284"/>
<text text-anchor="middle" x="265.246" y="-263.2" font-family="Courier,monospace" font-size="11.00">Route</text>
</g>
<!-- \\EChat\\Router\\IRoute -->
<g id="node16" class="node"><title>\\EChat\\Router\\IRoute</title>
<polygon fill="none" stroke="black" points="110.5,-284 53.5,-284 53.5,-248 110.5,-248 110.5,-284"/>
<text text-anchor="middle" x="82" y="-263.2" font-family="Courier,monospace" font-size="11.00">IRoute</text>
</g>
<!-- \\EChat\\Router\\Route&#45;&gt;\\EChat\\Router\\IRoute -->
<g id="edge9" class="edge"><title>\\EChat\\Router\\Route&#45;&gt;\\EChat\\Router\\IRoute</title>
<path fill="none" stroke="black" stroke-dasharray="1,5" d="M237.891,-266C207.105,-266 155.933,-266 120.892,-266"/>
<polygon fill="none" stroke="black" points="120.575,-262.5 110.575,-266 120.575,-269.5 120.575,-262.5"/>
</g>
<!-- \\EChat\\Registry -->
<g id="node17" class="node"><title>\\EChat\\Registry</title>
<polygon fill="none" stroke="black" points="300.746,-96 229.746,-96 229.746,-60 300.746,-60 300.746,-96"/>
<text text-anchor="middle" x="265.246" y="-75.2" font-family="Courier,monospace" font-size="11.00">Registry</text>
</g>
</g>
</svg>
